<svg width="102" height="121" viewBox="0 0 102 121" fill="none" xmlns="http://www.w3.org/2000/svg">
<rect y="0.654297" width="102" height="120.346" fill="#2A2523"/>
<path d="M25.3481 64.424C25.3481 63.7735 25.0853 63.2635 24.5635 62.8824C24.042 62.5016 23.2032 62.3096 22.0398 62.3096H16.863V66.5904H22.181C23.1704 66.5904 23.9414 66.4202 24.5038 66.0767C25.072 65.7364 25.3481 65.2042 25.3481 64.4795V64.424ZM24.2121 56.6423C24.2121 55.999 23.9646 55.5039 23.4602 55.1562C22.9557 54.8162 22.2276 54.6461 21.2808 54.6461H16.863V58.757H20.9887C21.9781 58.757 22.7607 58.5905 23.3443 58.2724C23.922 57.9472 24.2121 57.4188 24.2121 56.6978V56.6423ZM29.2266 67.3444C28.867 68.0099 28.3588 68.5644 27.688 69.0118C27.0217 69.4516 26.2217 69.7919 25.2885 70.01C24.3474 70.2318 23.3078 70.3389 22.1714 70.3389H12.5094V50.8937H21.9338C24.0226 50.8937 25.6573 51.3446 26.8475 52.2544C28.036 53.16 28.6291 54.3835 28.6291 55.9216V55.9771C28.6291 56.5352 28.5616 57.0195 28.413 57.4482C28.2719 57.8734 28.0807 58.2617 27.8411 58.6016C27.5974 58.9491 27.3192 59.2485 27.006 59.5035C26.6873 59.7661 26.3492 59.9878 25.9821 60.173C27.159 60.6017 28.0824 61.1784 28.7549 61.9102C29.4274 62.642 29.7638 63.6553 29.7638 64.9491V65.0082C29.7638 65.8991 29.5859 66.6756 29.2266 67.3444Z" fill="#FFFCF3"/>
<path d="M83.1501 54.8381V70.3389H78.5717V54.8381H72.2357V50.8937H89.49V54.8381H83.1501Z" fill="#FFFCF3"/>
<path d="M47.6393 27.5548V31.6936H57.6153V35.5885H47.6393V43.1162H43.0359V23.671H58.963V27.5548H47.6393Z" fill="#FFFCF3"/>
<path d="M88.9489 97.5615L12.5094 24.1935L13.0532 23.6698L89.4905 97.0415L88.9489 97.5615Z" fill="#FFFCF3"/>
<path d="M13.0532 97.5615L12.5094 97.0415L88.9489 23.6698L89.4905 24.1935L13.0532 97.5615Z" fill="#FFFCF3"/>
<path d="M48.3447 57.3757H53.6538V63.8574H48.3447V57.3757Z" fill="#FFFCF3"/>
<path d="M42.0929 96.3622L40.4042 93.888C40.348 93.7915 40.4042 93.673 40.5163 93.673H40.845C40.8944 93.673 40.9367 93.7101 40.9574 93.74L42.3729 95.8065L43.7884 93.74C43.8092 93.7101 43.8515 93.673 43.9008 93.673H44.2296C44.342 93.673 44.3979 93.7915 44.342 93.888L42.6322 96.3547V98.7179C42.6322 98.7918 42.5695 98.8584 42.4993 98.8584H42.2258C42.1491 98.8584 42.0929 98.7918 42.0929 98.7179V96.3622Z" fill="#FFFCF3"/>
<path d="M45.691 93.8135C45.691 93.7396 45.7403 93.673 45.8081 93.673H48.2284C48.2962 93.673 48.3455 93.7396 48.3455 93.8135V94.0281C48.3455 94.1023 48.2962 94.1693 48.2284 94.1693H46.1644V95.9767H47.9276C47.9892 95.9767 48.0444 96.0437 48.0444 96.1179V96.3325C48.0444 96.4136 47.9892 96.473 47.9276 96.473H46.1644V98.3621H48.2284C48.2962 98.3621 48.3455 98.4291 48.3455 98.5033V98.7179C48.3455 98.7918 48.2962 98.8584 48.2284 98.8584H45.8081C45.7403 98.8584 45.691 98.7918 45.691 98.7179V93.8135Z" fill="#FFFCF3"/>
<path d="M52.2167 97.12C51.8189 96.3243 51.4293 95.5208 51.0311 94.7247H50.9664L49.7817 97.12H52.2167ZM48.3609 98.6684L50.8283 93.7536C50.8531 93.7096 50.8934 93.673 50.9664 93.673H51.0477C51.1211 93.673 51.1614 93.7096 51.1854 93.7536L53.6374 98.6684C53.6863 98.7632 53.6212 98.8584 53.4997 98.8584H53.1745C53.1015 98.8584 53.0529 98.8144 53.0367 98.7778L52.4357 97.5731H49.554L48.962 98.7778C48.9454 98.8144 48.8969 98.8584 48.8239 98.8584H48.4987C48.3771 98.8584 48.3124 98.7632 48.3609 98.6684Z" fill="#FFFCF3"/>
<path d="M55.8463 96.3399C56.464 96.3399 57.0014 95.8659 57.0014 95.258C57.0014 94.6955 56.464 94.214 55.8463 94.214H54.2894V96.3399H55.8463ZM53.6545 93.8138C53.6545 93.74 53.7189 93.673 53.8078 93.673H55.8861C56.8492 93.673 57.6363 94.3695 57.6363 95.2508C57.6363 95.9322 57.1461 96.5027 56.448 96.762L57.5473 98.6434C57.6039 98.7396 57.5473 98.8584 57.4111 98.8584H57.0014C56.9296 98.8584 56.8898 98.8213 56.8738 98.7914L55.8058 96.829H54.273V98.7176C54.273 98.7914 54.2004 98.8584 54.12 98.8584H53.8078C53.7189 98.8584 53.6545 98.7914 53.6545 98.7176V93.8138Z" fill="#FFFCF3"/>
<path d="M58.9979 98.03C59.0279 97.9866 59.0579 97.9365 59.0885 97.8934C59.1492 97.7996 59.2157 97.7422 59.3004 97.8283C59.3425 97.8717 59.7849 98.3759 60.3235 98.3759C60.8138 98.3759 61.1349 98.0083 61.1349 97.5836C61.1349 97.0864 60.7717 96.7916 60.0754 96.4457C59.4096 96.1001 59.0099 95.7759 59.0099 94.9552C59.0099 94.4654 59.3369 93.673 60.2993 93.673C60.8924 93.673 61.3344 94.0406 61.3344 94.0406C61.3704 94.062 61.443 94.1485 61.3704 94.2854C61.3468 94.3285 61.3224 94.3789 61.2982 94.4223C61.2435 94.5228 61.1829 94.5515 61.0863 94.4871C61.0437 94.4583 60.6625 94.1555 60.2929 94.1555C59.6515 94.1555 59.4576 94.6453 59.4576 94.9478C59.4576 95.4307 59.7663 95.7111 60.2752 95.9632C61.0919 96.3595 61.6188 96.7265 61.6188 97.5619C61.6188 98.3108 61.0192 98.8584 60.3114 98.8584C59.5971 98.8584 59.1127 98.3616 59.0344 98.2747C58.9858 98.2243 58.9252 98.1669 58.9979 98.03Z" fill="#FFFCF3"/>
<path d="M41.5132 80.0078L40.0099 80.8616C39.8434 80.9533 39.676 80.9684 39.5298 80.8464L39.1337 80.5264C38.9875 80.4044 39.071 80.2669 39.1752 80.1908L42.098 78.1165H42.6615C42.8694 78.1165 43.0368 78.2537 43.0368 78.4063V88.1975C43.0368 88.3502 42.8694 88.4873 42.6615 88.4873H41.9093C41.6797 88.4873 41.5132 88.3502 41.5132 88.1975V80.0078Z" fill="#FFFCF3"/>
<path d="M51.3576 83.3018C51.3576 80.6203 50.5114 79.0792 49.0093 79.0792C47.5072 79.0792 46.6603 80.6203 46.6603 83.3018C46.6603 86.013 47.5072 87.5243 49.0093 87.5243C50.5114 87.5243 51.3576 86.013 51.3576 83.3018ZM45.691 83.3018C45.691 80.0573 46.8929 78.1165 49.0093 78.1165C51.126 78.1165 52.3273 80.0573 52.3273 83.3018C52.3273 86.5466 51.126 88.4873 49.0093 88.4873C46.8929 88.4873 45.691 86.5466 45.691 83.3018Z" fill="#FFFCF3"/>
<path d="M61.7823 83.3018C61.7823 80.6203 60.7661 79.0792 58.9635 79.0792C57.161 79.0792 56.1448 80.6203 56.1448 83.3018C56.1448 86.013 57.161 87.5243 58.9635 87.5243C60.7661 87.5243 61.7823 86.013 61.7823 83.3018ZM54.9816 83.3018C54.9816 80.0573 56.4239 78.1165 58.9635 78.1165C61.5035 78.1165 62.9451 80.0573 62.9451 83.3018C62.9451 86.5466 61.5035 88.4873 58.9635 88.4873C56.4239 88.4873 54.9816 86.5466 54.9816 83.3018Z" fill="#FFFCF3"/>
</svg>
