<svg width="46" height="46" viewBox="0 0 46 46" fill="none" xmlns="http://www.w3.org/2000/svg">
<path d="M7.67178 24.934C7.67178 24.536 7.51475 24.224 7.20292 23.9908C6.8913 23.7579 6.39006 23.6404 5.69492 23.6404H2.60153V26.2594H5.77924C6.37051 26.2594 6.83122 26.1553 7.16728 25.9451C7.5068 25.737 7.67178 25.4113 7.67178 24.968V24.934ZM6.99294 20.1731C6.99294 19.7795 6.84507 19.4767 6.54363 19.2639C6.24219 19.0559 5.80715 18.9518 5.24134 18.9518H2.60153V21.4669H5.06679C5.65806 21.4669 6.12569 21.365 6.47438 21.1704C6.81961 20.9715 6.99294 20.6482 6.99294 20.2071V20.1731ZM9.98938 26.7207C9.77451 27.1279 9.47083 27.4671 9.07 27.7408C8.67182 28.0099 8.1938 28.2181 7.63614 28.3515C7.07379 28.4872 6.45259 28.5527 5.77354 28.5527H0V16.6561H5.63158C6.87969 16.6561 7.85651 16.932 8.56774 17.4886C9.27795 18.0426 9.63234 18.7912 9.63234 19.7322V19.7661C9.63234 20.1076 9.59202 20.4039 9.50321 20.6662C9.41889 20.9263 9.30463 21.1639 9.16145 21.3718C9.01582 21.5844 8.84962 21.7676 8.66245 21.9236C8.47201 22.0843 8.26997 22.2199 8.05061 22.3332C8.7539 22.5955 9.30565 22.9483 9.7075 23.3961C10.1093 23.8438 10.3104 24.4637 10.3104 25.2553V25.2914C10.3104 25.8364 10.2041 26.3115 9.98938 26.7207Z" fill="#FFFEF2"/>
<path d="M42.2118 19.0693V28.5527H39.4759V19.0693H35.6898V16.6561H46.0002V19.0693H42.2118Z" fill="#FFFEF2"/>
<path d="M20.992 2.37597V4.90807H26.9532V7.291H20.992V11.8965H18.2412V-0.000167847H27.7585V2.37597H20.992Z" fill="#FFFEF2"/>
<path d="M45.6764 45.207L0 0.320171L0.324928 -0.00025177L46.0001 44.8889L45.6764 45.207Z" fill="#FFFEF2"/>
<path d="M0.324926 45.207L0 44.8889L45.6764 -0.00025177L46.0001 0.320171L0.324926 45.207Z" fill="#FFFEF2"/>
<path d="M21.4135 20.6214H24.5859V24.5869H21.4135V20.6214Z" fill="#FFFEF2"/>
<path d="M17.6777 44.4728L16.6686 42.9591C16.635 42.9001 16.6686 42.8276 16.7356 42.8276H16.932C16.9615 42.8276 16.9868 42.8503 16.9992 42.8685L17.845 44.1328L18.6908 42.8685C18.7032 42.8503 18.7285 42.8276 18.758 42.8276H18.9544C19.0216 42.8276 19.055 42.9001 19.0216 42.9591L17.9999 44.4682V45.9141C17.9999 45.9592 17.9625 46 17.9205 46H17.7571C17.7113 46 17.6777 45.9592 17.6777 45.9141V44.4728Z" fill="#FFFEF2"/>
<path d="M19.8276 42.9135C19.8276 42.8683 19.8571 42.8276 19.8976 42.8276H21.3439C21.3844 42.8276 21.4138 42.8683 21.4138 42.9135V43.0448C21.4138 43.0902 21.3844 43.1312 21.3439 43.1312H20.1105V44.2369H21.1641C21.2009 44.2369 21.2339 44.2779 21.2339 44.3233V44.4547C21.2339 44.5042 21.2009 44.5406 21.1641 44.5406H20.1105V45.6964H21.3439C21.3844 45.6964 21.4138 45.7373 21.4138 45.7827V45.9141C21.4138 45.9592 21.3844 46 21.3439 46H19.8976C19.8571 46 19.8276 45.9592 19.8276 45.9141V42.9135Z" fill="#FFFEF2"/>
<path d="M23.7271 44.9364C23.4894 44.4496 23.2567 43.958 23.0187 43.471H22.98L22.2721 44.9364H23.7271ZM21.4231 45.8838L22.8975 42.8769C22.9124 42.8499 22.9364 42.8276 22.98 42.8276H23.0286C23.0725 42.8276 23.0965 42.8499 23.1109 42.8769L24.5761 45.8838C24.6053 45.9418 24.5664 46 24.4938 46H24.2995C24.2558 46 24.2268 45.9731 24.2172 45.9507L23.858 45.2136H22.136L21.7823 45.9507C21.7724 45.9731 21.7434 46 21.6998 46H21.5054C21.4328 46 21.3941 45.9418 21.4231 45.8838Z" fill="#FFFEF2"/>
<path d="M25.8962 44.4592C26.2653 44.4592 26.5864 44.1692 26.5864 43.7973C26.5864 43.4531 26.2653 43.1585 25.8962 43.1585H24.9658V44.4592H25.8962ZM24.5864 42.9137C24.5864 42.8685 24.6249 42.8276 24.6781 42.8276H25.92C26.4954 42.8276 26.9657 43.2537 26.9657 43.7929C26.9657 44.2097 26.6729 44.5588 26.2557 44.7174L26.9126 45.8685C26.9464 45.9273 26.9126 46 26.8312 46H26.5864C26.5435 46 26.5197 45.9773 26.5101 45.959L25.8719 44.7584H24.956V45.9138C24.956 45.959 24.9126 46 24.8646 46H24.6781C24.6249 46 24.5864 45.959 24.5864 45.9138V42.9137Z" fill="#FFFEF2"/>
<path d="M27.7789 45.4932C27.7968 45.4666 27.8148 45.436 27.8331 45.4096C27.8693 45.3522 27.909 45.3171 27.9597 45.3698C27.9848 45.3964 28.2492 45.7048 28.571 45.7048C28.864 45.7048 29.0559 45.4799 29.0559 45.2201C29.0559 44.9159 28.8389 44.7355 28.4227 44.5239C28.0249 44.3125 27.7861 44.1141 27.7861 43.612C27.7861 43.3123 27.9815 42.8276 28.5566 42.8276C28.911 42.8276 29.1751 43.0525 29.1751 43.0525C29.1966 43.0655 29.24 43.1185 29.1966 43.2022C29.1825 43.2286 29.1679 43.2594 29.1535 43.286C29.1208 43.3474 29.0845 43.365 29.0269 43.3256C29.0014 43.308 28.7736 43.1227 28.5527 43.1227C28.1695 43.1227 28.0536 43.4224 28.0536 43.6075C28.0536 43.9029 28.2381 44.0745 28.5422 44.2287C29.0302 44.4712 29.345 44.6957 29.345 45.2068C29.345 45.665 28.9868 46 28.5638 46C28.137 46 27.8475 45.696 27.8007 45.6429C27.7717 45.6121 27.7355 45.5769 27.7789 45.4932Z" fill="#FFFEF2"/>
<path d="M17.3311 34.4675L16.4327 34.9898C16.3333 35.0459 16.2332 35.0552 16.1459 34.9806L15.9092 34.7847C15.8218 34.7101 15.8717 34.626 15.934 34.5794L17.6805 33.3104H18.0172C18.1415 33.3104 18.2415 33.3943 18.2415 33.4877V39.478C18.2415 39.5714 18.1415 39.6553 18.0172 39.6553H17.5678C17.4305 39.6553 17.3311 39.5714 17.3311 39.478V34.4675Z" fill="#FFFEF2"/>
<path d="M23.2138 36.4827C23.2138 34.8422 22.7081 33.8994 21.8105 33.8994C20.9129 33.8994 20.4069 34.8422 20.4069 36.4827C20.4069 38.1415 20.9129 39.0661 21.8105 39.0661C22.7081 39.0661 23.2138 38.1415 23.2138 36.4827ZM19.8276 36.4827C19.8276 34.4977 20.5459 33.3104 21.8105 33.3104C23.0753 33.3104 23.7932 34.4977 23.7932 36.4827C23.7932 38.4679 23.0753 39.6553 21.8105 39.6553C20.5459 39.6553 19.8276 38.4679 19.8276 36.4827Z" fill="#FFFEF2"/>
<path d="M29.4428 36.4827C29.4428 34.8422 28.8356 33.8994 27.7585 33.8994C26.6813 33.8994 26.0741 34.8422 26.0741 36.4827C26.0741 38.1415 26.6813 39.0661 27.7585 39.0661C28.8356 39.0661 29.4428 38.1415 29.4428 36.4827ZM25.379 36.4827C25.379 34.4977 26.2409 33.3104 27.7585 33.3104C29.2762 33.3104 30.1377 34.4977 30.1377 36.4827C30.1377 38.4679 29.2762 39.6553 27.7585 39.6553C26.2409 39.6553 25.379 38.4679 25.379 36.4827Z" fill="#FFFEF2"/>
</svg>
